# Blender v2.92.0 OBJ File: ''
# www.blender.org
mtllib domek1.mtl
o Cube
v 0.889321 0.663644 -0.253253
v 0.889321 0.663644 -0.751892
v 0.889321 0.976853 -0.845617
v 0.889321 1.308967 -0.845617
v 0.889321 0.976853 -1.177731
v 0.889321 1.308967 -1.177731
v 0.889321 1.436791 -0.845617
v 0.889321 1.768905 -0.845617
v 0.889321 1.436791 -1.177731
v 0.889321 1.768905 -1.177731
v 0.889321 1.436791 -1.269128
v 0.889321 1.768905 -1.269128
v 0.889321 1.436791 -1.601242
v 0.889321 1.768905 -1.601242
v 0.889321 0.979225 -1.269128
v 0.889321 1.311339 -1.269128
v 0.889321 0.979225 -1.601242
v 0.889321 1.311339 -1.601242
v 0.889321 0.979225 0.690754
v 0.889321 1.311339 0.690754
v 0.889321 0.979225 0.358641
v 0.889321 1.311339 0.358641
v 0.889321 0.979225 0.252377
v 0.889321 1.311339 0.252377
v 0.889321 0.979225 -0.079737
v 0.889321 1.311339 -0.079737
v 0.889321 1.424911 0.252377
v 0.889321 1.757024 0.252377
v 0.889321 1.424911 -0.079737
v 0.889321 1.757024 -0.079737
v 0.889321 1.424911 0.681973
v 0.889321 1.757024 0.681973
v 0.889321 1.424911 0.349860
v 0.889321 1.757024 0.349860
v 1.000000 2.043380 -1.000000
v 1.000000 0.043380 -1.000000
v 1.000000 2.043380 1.000000
v 1.000000 0.043380 1.000000
v -1.000000 2.043380 -1.000000
v -1.000000 0.043380 -1.000000
v -1.000000 2.043380 1.000000
v -1.000000 0.043380 1.000000
v 1.000000 1.424911 0.349860
v 1.000000 1.757024 0.349860
v 1.000000 1.424911 0.681973
v 1.000000 1.757024 0.681973
v 1.000000 1.424911 -0.079737
v 1.000000 1.757024 -0.079737
v 1.000000 1.424911 0.252377
v 1.000000 1.757024 0.252377
v 1.000000 0.979225 -0.079737
v 1.000000 1.311339 -0.079737
v 1.000000 0.979225 0.252377
v 1.000000 1.311339 0.252377
v 1.000000 0.979225 0.358641
v 1.000000 1.311339 0.358641
v 1.000000 0.979225 0.690754
v 1.000000 1.311339 0.690754
v 1.000000 0.043380 -1.898048
v -1.000000 0.043380 -1.898048
v 1.000000 2.043380 -1.898048
v -1.000000 2.043380 -1.898048
v 1.000000 0.979225 -1.601242
v 1.000000 1.311339 -1.601242
v 1.000000 0.979225 -1.269128
v 1.000000 1.311339 -1.269128
v 1.000000 1.436791 -1.601242
v 1.000000 1.768905 -1.601242
v 1.000000 1.436791 -1.269128
v 1.000000 1.768905 -1.269128
v 1.000000 1.559944 -1.177731
v 1.000000 1.436791 -1.177731
v 1.000000 1.768905 -1.177731
v 1.000000 1.436791 -0.845617
v 1.000000 1.768905 -0.845617
v 1.000000 1.436791 -1.000000
v 1.000000 1.768905 -1.100908
v 1.000000 1.768905 -1.000000
v 1.000000 0.976853 -1.177731
v 1.000000 1.308967 -1.177731
v 1.000000 0.976853 -0.845617
v 1.000000 1.308967 -0.845617
v 1.000000 0.976853 -1.000000
v 1.000000 1.308967 -1.000000
v 0.889321 0.043380 -0.253253
v 0.889321 0.043380 -0.751892
v 1.000000 0.043380 -0.751892
v 1.000000 0.663644 -0.751892
v 1.000000 0.043380 -0.253253
v 1.000000 0.663644 -0.253253
vt 0.875000 0.500000
vt 0.625000 0.750000
vt 0.625000 0.500000
vt 0.375000 1.000000
vt 0.375000 0.750000
vt 0.625000 0.000000
vt 0.375000 0.250000
vt 0.375000 0.000000
vt 0.625000 0.250000
vt 0.375000 0.250000
vt 0.375000 0.000000
vt 0.625000 0.250000
vt 0.625000 0.000000
vt 0.375000 0.250000
vt 0.625000 0.333314
vt 0.625000 1.000000
vt 0.375000 0.916686
vt 0.375000 1.000000
vt 0.125000 0.500000
vt 0.208314 0.750000
vt 0.208314 0.500000
vt 0.875000 0.750000
vt 0.791686 0.500000
vt 0.791686 0.750000
vt 0.589206 0.668732
vt 0.589206 0.710247
vt 0.375000 0.000000
vt 0.625000 0.250000
vt 0.625000 0.000000
vt 0.375000 0.250000
vt 0.625000 0.333314
vt 0.625000 1.000000
vt 0.375000 0.916686
vt 0.375000 1.000000
vt 0.125000 0.500000
vt 0.208314 0.750000
vt 0.208314 0.500000
vt 0.875000 0.750000
vt 0.791686 0.500000
vt 0.791686 0.750000
vt 0.547691 0.656547
vt 0.589206 0.656547
vt 0.375000 0.000000
vt 0.625000 0.250000
vt 0.625000 0.000000
vt 0.375000 0.250000
vt 0.625000 0.333314
vt 0.625000 1.000000
vt 0.375000 0.916686
vt 0.375000 1.000000
vt 0.125000 0.500000
vt 0.208314 0.750000
vt 0.208314 0.500000
vt 0.875000 0.750000
vt 0.791686 0.500000
vt 0.791686 0.750000
vt 0.547691 0.615033
vt 0.533495 0.656547
vt 0.533495 0.615033
vt 0.375000 0.000000
vt 0.625000 0.250000
vt 0.625000 0.000000
vt 0.375000 0.250000
vt 0.625000 0.333314
vt 0.625000 1.000000
vt 0.375000 0.916686
vt 0.375000 1.000000
vt 0.125000 0.500000
vt 0.208314 0.750000
vt 0.208314 0.500000
vt 0.875000 0.500000
vt 0.791686 0.750000
vt 0.875000 0.750000
vt 0.491981 0.656547
vt 0.533495 0.669830
vt 0.491981 0.669830
vt 0.625000 0.250000
vt 0.375000 0.500000
vt 0.125000 0.500000
vt 0.375000 0.500000
vt 0.875000 0.500000
vt 0.375000 0.000000
vt 0.625000 0.250000
vt 0.625000 0.000000
vt 0.375000 0.250000
vt 0.625000 0.333314
vt 0.625000 1.000000
vt 0.375000 0.916686
vt 0.375000 1.000000
vt 0.125000 0.500000
vt 0.208314 0.750000
vt 0.208314 0.500000
vt 0.875000 0.750000
vt 0.791686 0.500000
vt 0.791686 0.750000
vt 0.375000 0.000000
vt 0.625000 0.250000
vt 0.625000 0.000000
vt 0.375000 0.250000
vt 0.625000 0.333314
vt 0.625000 1.000000
vt 0.375000 0.916686
vt 0.375000 1.000000
vt 0.125000 0.500000
vt 0.208314 0.750000
vt 0.208314 0.500000
vt 0.875000 0.750000
vt 0.791686 0.500000
vt 0.791686 0.750000
vt 0.533495 0.500000
vt 0.549176 0.500000
vt 0.549176 0.500000
vt 0.375000 0.000000
vt 0.625000 0.250000
vt 0.625000 0.000000
vt 0.375000 0.250000
vt 0.375000 0.333314
vt 0.467704 0.333314
vt 0.625000 1.000000
vt 0.375000 0.916686
vt 0.375000 1.000000
vt 0.125000 0.750000
vt 0.208314 0.750000
vt 0.208314 0.633788
vt 0.875000 0.500000
vt 0.791686 0.557828
vt 0.791686 0.633788
vt 0.590691 0.500000
vt 0.590691 0.500000
vt 0.590691 0.500000
vt 0.625000 0.500000
vt 0.375000 0.000000
vt 0.625000 0.250000
vt 0.625000 0.000000
vt 0.375000 0.250000
vt 0.625000 0.333314
vt 0.625000 1.000000
vt 0.375000 0.916686
vt 0.375000 1.000000
vt 0.125000 0.750000
vt 0.208314 0.633788
vt 0.125000 0.500000
vt 0.875000 0.500000
vt 0.791686 0.500000
vt 0.791686 0.633788
vt 0.549176 0.500000
vt 0.533198 0.500000
vt 0.625000 0.250000
vt 0.381409 0.000000
vt 0.381409 0.250000
vt 0.625000 0.333314
vt 0.625000 1.000000
vt 0.381409 0.916686
vt 0.381409 1.000000
vt 0.875000 0.500000
vt 0.791686 0.750000
vt 0.875000 0.750000
vt 0.361165 0.531014
vt 0.361165 0.593343
vt 0.589206 0.615033
vt 0.875000 0.750000
vt 0.625000 1.000000
vt 0.375000 0.333314
vt 0.625000 0.916686
vt 0.125000 0.750000
vt 0.875000 0.500000
vt 0.375000 0.333314
vt 0.625000 0.916686
vt 0.125000 0.750000
vt 0.875000 0.500000
vt 0.547691 0.668732
vt 0.375000 0.333314
vt 0.625000 0.916686
vt 0.125000 0.750000
vt 0.875000 0.500000
vt 0.375000 0.333314
vt 0.625000 0.916686
vt 0.125000 0.750000
vt 0.791686 0.500000
vt 0.125000 0.500000
vt 0.375000 0.333314
vt 0.625000 0.916686
vt 0.125000 0.750000
vt 0.875000 0.500000
vt 0.375000 0.333314
vt 0.625000 0.916686
vt 0.125000 0.750000
vt 0.875000 0.500000
vt 0.533495 0.500000
vt 0.625000 0.333314
vt 0.625000 0.916686
vt 0.208314 0.500000
vt 0.125000 0.500000
vt 0.791686 0.750000
vt 0.875000 0.750000
vt 0.791686 0.500000
vt 0.564570 0.500000
vt 0.590691 0.500000
vt 0.590691 0.500000
vt 0.375000 0.333314
vt 0.625000 0.916686
vt 0.208314 0.750000
vt 0.208314 0.500000
vt 0.791686 0.750000
vt 0.875000 0.750000
vt 0.491684 0.500000
vt 0.491684 0.500000
vt 0.491981 0.500000
vt 0.491981 0.500000
vt 0.549176 0.500000
vt 0.533198 0.500000
vt 0.625000 0.000000
vt 0.381409 0.333314
vt 0.625000 0.916686
vt 0.791686 0.500000
vt 0.375000 0.593343
vt 0.125000 0.750000
vt 0.375000 0.531014
vt 0.547691 0.710247
vt 0.533495 0.711344
vt 0.491981 0.711344
vt 0.491981 0.615033
vt 0.452533 0.593343
vt 0.452533 0.531014
vt 0.491684 0.519298
vt 0.533198 0.519298
vt 0.549176 0.519298
vt 0.590690 0.519298
vn 0.0000 1.0000 0.0000
vn 0.0000 0.0000 1.0000
vn -1.0000 0.0000 0.0000
vn 1.0000 0.0000 0.0000
vn 0.0000 0.0000 -1.0000
vn 0.0000 -1.0000 0.0000
usemtl Material
s off
f 39/1/1 37/2/1 35/3/1
f 37/2/2 42/4/2 38/5/2
f 41/6/3 40/7/3 42/8/3
f 39/9/3 60/10/3 40/7/3
f 31/11/4 34/12/4 32/13/4
f 33/14/2 44/15/2 34/12/2
f 32/16/5 45/17/5 31/18/5
f 33/19/1 45/20/1 43/21/1
f 32/22/6 44/23/6 46/24/6
f 44/25/4 37/2/4 46/26/4
f 27/27/4 30/28/4 28/29/4
f 29/30/2 48/31/2 30/28/2
f 28/32/5 49/33/5 27/34/5
f 29/35/1 49/36/1 47/37/1
f 28/38/6 48/39/6 50/40/6
f 44/25/4 49/41/4 50/42/4
f 23/43/4 26/44/4 24/45/4
f 25/46/2 52/47/2 26/44/2
f 24/48/5 53/49/5 23/50/5
f 25/51/1 53/52/1 51/53/1
f 24/54/6 52/55/6 54/56/6
f 47/57/4 54/58/4 52/59/4
f 19/60/4 22/61/4 20/62/4
f 21/63/2 56/64/2 22/61/2
f 20/65/5 57/66/5 19/67/5
f 21/68/1 57/69/1 55/70/1
f 22/71/6 58/72/6 20/73/6
f 53/74/4 56/75/4 55/76/4
f 62/77/5 59/78/5 60/10/5
f 40/79/6 59/78/6 36/80/6
f 35/3/1 62/81/1 39/1/1
f 15/82/4 18/83/4 16/84/4
f 17/85/2 64/86/2 18/83/2
f 16/87/5 65/88/5 15/89/5
f 17/90/1 65/91/1 63/92/1
f 16/93/6 64/94/6 66/95/6
f 11/96/4 14/97/4 12/98/4
f 13/99/2 68/100/2 14/97/2
f 12/101/5 69/102/5 11/103/5
f 13/104/1 69/105/1 67/106/1
f 12/107/6 68/108/6 70/109/6
f 66/110/4 67/111/4 69/112/4
f 7/113/4 10/114/4 8/115/4
f 9/116/2 72/117/2 71/118/2
f 8/119/5 74/120/5 7/121/5
f 7/122/1 74/123/1 76/124/1
f 10/125/6 77/126/6 78/127/6
f 35/3/4 78/128/4 77/129/4
f 68/130/4 61/131/4 35/3/4
f 3/132/4 6/133/4 4/134/4
f 5/135/2 80/136/2 6/133/2
f 4/137/5 81/138/5 3/139/5
f 3/140/1 83/141/1 5/142/1
f 6/143/6 80/144/6 84/145/6
f 66/110/4 72/146/4 80/147/4
f 2/148/4 85/149/4 86/150/4
f 86/150/2 88/151/2 2/148/2
f 1/152/5 89/153/5 85/154/5
f 2/155/6 90/156/6 1/157/6
f 40/79/6 86/158/6 85/159/6
f 35/3/4 50/42/4 48/160/4
f 39/1/1 41/161/1 37/2/1
f 37/2/2 41/162/2 42/4/2
f 41/6/3 39/9/3 40/7/3
f 39/9/3 62/77/3 60/10/3
f 31/11/4 33/14/4 34/12/4
f 33/14/2 43/163/2 44/15/2
f 32/16/5 46/164/5 45/17/5
f 33/19/1 31/165/1 45/20/1
f 32/22/6 34/166/6 44/23/6
f 44/25/4 35/3/4 37/2/4
f 27/27/4 29/30/4 30/28/4
f 29/30/2 47/167/2 48/31/2
f 28/32/5 50/168/5 49/33/5
f 29/35/1 27/169/1 49/36/1
f 28/38/6 30/170/6 48/39/6
f 44/25/4 43/171/4 49/41/4
f 23/43/4 25/46/4 26/44/4
f 25/46/2 51/172/2 52/47/2
f 24/48/5 54/173/5 53/49/5
f 25/51/1 23/174/1 53/52/1
f 24/54/6 26/175/6 52/55/6
f 47/57/4 49/41/4 54/58/4
f 19/60/4 21/63/4 22/61/4
f 21/63/2 55/176/2 56/64/2
f 20/65/5 58/177/5 57/66/5
f 21/68/1 19/178/1 57/69/1
f 22/71/6 56/179/6 58/72/6
f 53/74/4 54/58/4 56/75/4
f 62/77/5 61/131/5 59/78/5
f 40/79/6 60/180/6 59/78/6
f 35/3/1 61/131/1 62/81/1
f 15/82/4 17/85/4 18/83/4
f 17/85/2 63/181/2 64/86/2
f 16/87/5 66/182/5 65/88/5
f 17/90/1 15/183/1 65/91/1
f 16/93/6 18/184/6 64/94/6
f 11/96/4 13/99/4 14/97/4
f 13/99/2 67/185/2 68/100/2
f 12/101/5 70/186/5 69/102/5
f 13/104/1 11/187/1 69/105/1
f 12/107/6 14/188/6 68/108/6
f 66/110/4 64/189/4 67/111/4
f 7/113/4 9/116/4 10/114/4
f 73/190/2 10/114/2 71/118/2
f 10/114/2 9/116/2 71/118/2
f 8/119/5 75/191/5 74/120/5
f 76/124/1 72/192/1 9/193/1
f 9/193/1 7/122/1 76/124/1
f 75/194/6 8/195/6 78/127/6
f 8/195/6 10/125/6 78/127/6
f 10/125/6 73/196/6 77/126/6
f 71/197/4 66/110/4 69/112/4
f 71/197/4 69/112/4 70/198/4
f 35/3/4 77/129/4 73/199/4
f 73/199/4 71/197/4 70/198/4
f 68/130/4 67/111/4 61/131/4
f 67/111/4 64/189/4 61/131/4
f 35/3/4 73/199/4 70/198/4
f 35/3/4 70/198/4 68/130/4
f 3/132/4 5/135/4 6/133/4
f 5/135/2 79/200/2 80/136/2
f 4/137/5 82/201/5 81/138/5
f 81/202/1 83/141/1 3/140/1
f 83/141/1 79/203/1 5/142/1
f 82/204/6 4/205/6 84/145/6
f 4/205/6 6/143/6 84/145/6
f 79/206/4 83/207/4 36/80/4
f 59/78/4 61/131/4 63/208/4
f 61/131/4 64/189/4 63/208/4
f 79/206/4 36/80/4 65/209/4
f 36/80/4 59/78/4 63/208/4
f 76/210/4 84/211/4 80/147/4
f 36/80/4 63/208/4 65/209/4
f 65/209/4 66/110/4 80/147/4
f 66/110/4 71/197/4 72/146/4
f 72/146/4 76/210/4 80/147/4
f 80/147/4 79/206/4 65/209/4
f 2/148/4 1/212/4 85/149/4
f 86/150/2 87/213/2 88/151/2
f 1/152/5 90/214/5 89/153/5
f 2/155/6 88/215/6 90/156/6
f 85/159/6 89/216/6 38/5/6
f 38/5/6 42/217/6 85/159/6
f 42/217/6 40/79/6 85/159/6
f 40/79/6 36/80/6 86/158/6
f 36/80/6 87/218/6 86/158/6
f 56/75/4 54/58/4 43/171/4
f 54/58/4 49/41/4 43/171/4
f 43/171/4 45/219/4 56/75/4
f 56/75/4 45/219/4 58/220/4
f 53/74/4 55/76/4 89/216/4
f 55/76/4 57/221/4 38/5/4
f 51/222/4 53/74/4 90/223/4
f 55/76/4 38/5/4 89/216/4
f 58/220/4 45/219/4 37/2/4
f 45/219/4 46/26/4 37/2/4
f 89/216/4 90/223/4 53/74/4
f 88/224/4 87/218/4 36/80/4
f 88/224/4 36/80/4 83/207/4
f 88/224/4 83/207/4 81/225/4
f 90/223/4 88/224/4 81/225/4
f 82/226/4 84/211/4 76/210/4
f 90/223/4 81/225/4 51/222/4
f 81/225/4 82/226/4 51/222/4
f 58/220/4 37/2/4 57/221/4
f 37/2/4 38/5/4 57/221/4
f 82/226/4 76/210/4 74/227/4
f 75/228/4 78/128/4 35/3/4
f 82/226/4 74/227/4 47/57/4
f 51/222/4 82/226/4 52/59/4
f 75/228/4 35/3/4 48/160/4
f 35/3/4 44/25/4 50/42/4
f 48/160/4 47/57/4 74/227/4
f 47/57/4 52/59/4 82/226/4
f 48/160/4 74/227/4 75/228/4
o Kostka
v 1.481916 2.027129 1.515931
v -0.079082 3.377451 -0.493385
v 1.481916 2.027129 -2.417522
v -0.079082 3.377451 -0.522450
v -1.592027 2.027129 1.515931
v -0.083185 3.377451 -0.493385
v -1.592027 2.027129 -2.417522
v -0.083185 3.377451 -0.522450
vt 0.625000 0.000000
vt 0.375000 0.000000
vt 0.375000 0.250000
vt 0.625000 0.250000
vt 0.375000 0.500000
vt 0.375000 0.750000
vt 0.625000 0.750000
vt 0.375000 1.000000
vt 0.625000 1.000000
vt 0.125000 0.500000
vt 0.125000 0.750000
vt 0.875000 0.500000
vt 0.625000 0.500000
vt 0.875000 0.750000
vn 0.6542 0.7563 0.0000
vn 0.0000 0.8144 -0.5803
vn -0.6669 0.7452 0.0000
vn 0.0000 0.8300 0.5578
vn 0.0000 -1.0000 0.0000
vn 0.0000 1.0000 0.0000
usemtl None
s off
f 92/229/7 91/230/7 93/231/7
f 94/232/8 93/231/8 97/233/8
f 97/233/9 95/234/9 96/235/9
f 95/234/10 91/236/10 92/237/10
f 97/233/11 93/238/11 91/239/11
f 94/240/12 98/241/12 96/235/12
f 92/229/7 93/231/7 94/232/7
f 94/232/8 97/233/8 98/241/8
f 97/233/9 96/235/9 98/241/9
f 95/234/10 92/237/10 96/235/10
f 97/233/11 91/239/11 95/234/11
f 94/240/12 96/235/12 92/242/12
